<?xml version="1.0" encoding="UTF-8"?>
<svg id="a" data-name="Layer 16" xmlns="http://www.w3.org/2000/svg" viewBox="0 0 600 600">
  <defs>
    <style>
      .b {
        fill: #fabd2f;
      }

      .b, .c, .d, .e, .f, .g {
        stroke-width: 0px;
      }

      .c {
        fill: #98971a;
      }

      .d {
        fill: #cc241d;
      }

      .e {
        fill: #32302f;
      }

      .f {
        fill: #d79921;
      }

      .g {
        fill: #fb4934;
      }
    </style>
  </defs>
  <g>
    <rect class="d" x="195.15" y="165.32" width="193.07" height="182.52"/>
    <polygon class="f" points="195.15 347.84 195.15 165.32 388.22 165.32 195.15 347.84"/>
    <polygon class="b" points="195.15 347.84 242.65 212.82 388.22 165.32 195.15 347.84"/>
    <polygon class="g" points="239.68 347.92 276.24 244.01 388.27 207.45 239.68 347.92"/>
    <polygon class="c" points="388.22 347.84 239.68 347.84 388.22 207.42 388.22 347.84"/>
  </g>
  <g>
    <path class="e" d="m151.46,402.55l8.46-25.86h8.28l7.86,25.86,7.56-25.86h10.86l-12.78,40.02h-10.62l-7.26-23.16-7.68,23.16h-10.56l-11.94-40.02h10.86l6.96,25.86Z"/>
    <path class="e" d="m206.66,409.75l-2.76,6.96h-10.98l15.36-40.02h11.34l15.06,40.02h-11.1l-2.58-6.96h-14.34Zm7.26-20.7l-4.38,12.78h8.64l-4.26-12.78Z"/>
    <path class="e" d="m230.9,376.69h12.42l7.56,10.92,7.26-10.92h12.6l-15,20.82v19.2h-10.38v-19.2l-14.46-20.82Z"/>
    <path class="e" d="m284.6,416.71h-10.38v-40.02h16.5c4.68,0,7.44.9,10.02,3.36s3.9,5.7,3.9,9.9c0,3.96-1.14,7.38-3.24,9.72-2.22,2.52-5.52,3.72-10.32,3.72h-6.48v13.32Zm3.42-21.66c3.96,0,5.76-1.56,5.76-4.98s-1.86-5.04-5.7-5.04h-3.48v10.02h3.42Z"/>
    <path class="e" d="m318.02,409.75l-2.76,6.96h-10.98l15.36-40.02h11.34l15.06,40.02h-11.1l-2.58-6.96h-14.34Zm7.26-20.7l-4.38,12.78h8.64l-4.26-12.78Z"/>
    <path class="e" d="m361.04,416.71h-10.38v-40.02h16.5c4.68,0,7.44.9,10.02,3.36s3.9,5.7,3.9,9.9c0,3.96-1.14,7.38-3.24,9.72-2.22,2.52-5.52,3.72-10.32,3.72h-6.48v13.32Zm3.42-21.66c3.96,0,5.76-1.56,5.76-4.98s-1.86-5.04-5.7-5.04h-3.48v10.02h3.42Z"/>
    <path class="e" d="m397.4,385.51v6.66h11.7v8.82h-11.7v6.9h12.36v8.82h-22.74v-40.02h22.74v8.82h-12.36Z"/>
    <path class="e" d="m449.6,416.71h-12.96l-9.9-15.36v15.36h-10.38v-40.02h16.14c4.56,0,7.5,1.08,9.84,3.54,2.16,2.28,3.42,5.52,3.42,8.82,0,3.54-1.38,6.9-3.66,8.88-1.38,1.2-2.7,1.86-5.1,2.4l12.6,16.38Zm-20.94-22.08c1.98,0,3.48-.36,4.44-1.08,1.14-.84,1.98-2.46,1.98-3.9s-.84-3.06-1.98-3.9c-.96-.72-2.46-1.08-4.44-1.08h-1.92v9.96h1.92Z"/>
  </g>
</svg>