<?xml version="1.0" encoding="UTF-8"?>
<svg id="a" data-name="Layer 16" xmlns="http://www.w3.org/2000/svg" viewBox="0 0 600 600">
  <defs>
    <style>
      .b, .c, .d {
        stroke-width: 0px;
      }

      .c {
        fill: #32302f;
      }

      .d {
        fill: #fff;
      }
    </style>
  </defs>
  <g>
    <g>
      <rect class="d" x="195.65" y="165.82" width="192.07" height="181.52"/>
      <path class="b" d="m387.22,166.32v180.52h-191.07v-180.52h191.07m1-1h-193.07v182.52h193.07v-182.52h0Z"/>
    </g>
    <g>
      <polygon class="d" points="195.65 165.82 386.97 165.82 195.65 346.68 195.65 165.82"/>
      <path class="b" d="m385.71,166.32l-189.56,179.2v-179.2h189.56m2.51-1h-193.07v182.52l193.07-182.52h0Z"/>
    </g>
    <g>
      <polygon class="d" points="243.04 213.22 386.26 166.49 196.31 346.06 243.04 213.22"/>
      <path class="b" d="m384.3,167.65l-186.83,176.63,45.97-130.66,140.87-45.97m3.92-2.33l-145.57,47.5-47.5,135.02,193.07-182.52h0Z"/>
    </g>
    <g>
      <polygon class="d" points="276.63 244.41 386.31 208.62 240.84 346.14 276.63 244.41"/>
      <path class="b" d="m384.35,209.78l-142.35,134.57,35.02-99.55,107.33-35.02m3.92-2.33l-112.03,36.56-36.56,103.91,148.59-140.47h0Z"/>
    </g>
  </g>
  <g>
    <path class="c" d="m151.46,402.55l8.46-25.86h8.28l7.86,25.86,7.56-25.86h10.86l-12.78,40.02h-10.62l-7.26-23.16-7.68,23.16h-10.56l-11.94-40.02h10.86l6.96,25.86Z"/>
    <path class="c" d="m206.66,409.75l-2.76,6.96h-10.98l15.36-40.02h11.34l15.06,40.02h-11.1l-2.58-6.96h-14.34Zm7.26-20.7l-4.38,12.78h8.64l-4.26-12.78Z"/>
    <path class="c" d="m230.9,376.69h12.42l7.56,10.92,7.26-10.92h12.6l-15,20.82v19.2h-10.38v-19.2l-14.46-20.82Z"/>
    <path class="c" d="m284.6,416.71h-10.38v-40.02h16.5c4.68,0,7.44.9,10.02,3.36,2.58,2.46,3.9,5.7,3.9,9.9,0,3.96-1.14,7.38-3.24,9.72-2.22,2.52-5.52,3.72-10.32,3.72h-6.48v13.32Zm3.42-21.66c3.96,0,5.76-1.56,5.76-4.98s-1.86-5.04-5.7-5.04h-3.48v10.02h3.42Z"/>
    <path class="c" d="m318.02,409.75l-2.76,6.96h-10.98l15.36-40.02h11.34l15.06,40.02h-11.1l-2.58-6.96h-14.34Zm7.26-20.7l-4.38,12.78h8.64l-4.26-12.78Z"/>
    <path class="c" d="m361.04,416.71h-10.38v-40.02h16.5c4.68,0,7.44.9,10.02,3.36s3.9,5.7,3.9,9.9c0,3.96-1.14,7.38-3.24,9.72-2.22,2.52-5.52,3.72-10.32,3.72h-6.48v13.32Zm3.42-21.66c3.96,0,5.76-1.56,5.76-4.98s-1.86-5.04-5.7-5.04h-3.48v10.02h3.42Z"/>
    <path class="c" d="m397.4,385.51v6.66h11.7v8.82h-11.7v6.9h12.36v8.82h-22.74v-40.02h22.74v8.82h-12.36Z"/>
    <path class="c" d="m449.6,416.71h-12.96l-9.9-15.36v15.36h-10.38v-40.02h16.14c4.56,0,7.5,1.08,9.84,3.54,2.16,2.28,3.42,5.52,3.42,8.82,0,3.54-1.38,6.9-3.66,8.88-1.38,1.2-2.7,1.86-5.1,2.4l12.6,16.38Zm-20.94-22.08c1.98,0,3.48-.36,4.44-1.08,1.14-.84,1.98-2.46,1.98-3.9s-.84-3.06-1.98-3.9c-.96-.72-2.46-1.08-4.44-1.08h-1.92v9.96h1.92Z"/>
  </g>
</svg>