<?xml version="1.0" encoding="utf-8"?>
<!-- Generator: Adobe Illustrator 27.9.1, SVG Export Plug-In . SVG Version: 6.00 Build 0)  -->
<svg version="1.1" id="a" xmlns="http://www.w3.org/2000/svg" xmlns:xlink="http://www.w3.org/1999/xlink" x="0px" y="0px"
	 viewBox="0 0 600 600" style="enable-background:new 0 0 600 600;" xml:space="preserve">
<style type="text/css">
	.st0{fill:#CC241D;}
	.st1{fill:#D79921;}
	.st2{fill:#FABD2F;}
	.st3{fill:#FB4934;}
	.st4{fill:#98971A;}
	.st5{fill:#32302F;}
</style>
<g>
	<rect x="195.1" y="165.3" class="st0" width="193.1" height="182.5"/>
	<polygon class="st1" points="195.1,347.8 195.1,165.3 388.2,165.3 	"/>
	<polygon class="st2" points="195.1,347.8 242.6,212.8 388.2,165.3 	"/>
	<polygon class="st3" points="239.7,347.9 276.2,244 388.3,207.4 	"/>
	<polygon class="st4" points="388.2,347.8 239.7,347.8 388.2,207.4 	"/>
</g>
<g>
	<path class="st5" d="M210.6,390.5l7.3-22.4h7.2l6.8,22.4l6.6-22.4h9.4l-11.1,34.7h-9.2l-6.3-20.1l-6.7,20.1h-9.2l-10.3-34.7h9.4
		L210.6,390.5z"/>
	<path class="st5" d="M258.4,396.7l-2.4,6h-9.5l13.3-34.7h9.8l13.1,34.7h-9.6l-2.2-6H258.4z M264.7,378.8l-3.8,11.1h7.5L264.7,378.8
		z"/>
	<path class="st5" d="M279.4,368.1h10.8l6.6,9.5l6.3-9.5H314l-13,18v16.6h-9v-16.6L279.4,368.1z"/>
	<path class="st5" d="M326,402.8h-9v-34.7h14.3c4.1,0,6.4,0.8,8.7,2.9c2.2,2.1,3.4,4.9,3.4,8.6c0,3.4-1,6.4-2.8,8.4
		c-1.9,2.2-4.8,3.2-8.9,3.2H326V402.8z M328.9,384c3.4,0,5-1.4,5-4.3c0-2.9-1.6-4.4-4.9-4.4h-3v8.7H328.9z"/>
	<path class="st5" d="M354.9,396.7l-2.4,6H343l13.3-34.7h9.8l13.1,34.7h-9.6l-2.2-6H354.9z M361.2,378.8l-3.8,11.1h7.5L361.2,378.8z
		"/>
	<path class="st5" d="M392.2,402.8h-9v-34.7h14.3c4.1,0,6.4,0.8,8.7,2.9c2.2,2.1,3.4,4.9,3.4,8.6c0,3.4-1,6.4-2.8,8.4
		c-1.9,2.2-4.8,3.2-8.9,3.2h-5.6V402.8z M395.2,384c3.4,0,5-1.4,5-4.3c0-2.9-1.6-4.4-4.9-4.4h-3v8.7H395.2z"/>
	<path class="st5" d="M423.7,375.7v5.8h10.1v7.6h-10.1v6h10.7v7.6h-19.7v-34.7h19.7v7.6H423.7z"/>
	<path class="st5" d="M469,402.8h-11.2l-8.6-13.3v13.3h-9v-34.7h14c4,0,6.5,0.9,8.5,3.1c1.9,2,3,4.8,3,7.6c0,3.1-1.2,6-3.2,7.7
		c-1.2,1-2.3,1.6-4.4,2.1L469,402.8z M450.8,383.6c1.7,0,3-0.3,3.8-0.9c1-0.7,1.7-2.1,1.7-3.4s-0.7-2.7-1.7-3.4
		c-0.8-0.6-2.1-0.9-3.8-0.9h-1.7v8.6H450.8z"/>
	<path class="st5" d="M207.8,429.7v5.8h10.1v7.6h-10.1v6h10.7v7.6h-19.7v-34.7h19.7v7.6H207.8z"/>
	<path class="st5" d="M224.2,422.1h9l16.6,21.2v-21.2h9v34.7h-9l-16.6-21.2v21.2h-9V422.1z"/>
	<path class="st5" d="M301.3,437.5c-0.1,5.1-0.6,7.9-1.8,10.7c-2.9,6.3-8.5,9.8-16,9.8c-11,0-18.5-7.5-18.5-18.4
		c0-11.1,7.6-18.6,18.8-18.6c7.4,0,12.3,3.1,15.6,9.8l-8.6,3.5c-1.6-3.7-4-5.5-7.4-5.5c-5.1,0-9,4.6-9,10.9c0,3.2,1.1,6.3,3.1,8.4
		c1.5,1.7,3.6,2.5,6.1,2.5c2.5,0,4.6-0.9,5.9-2.5c0.7-0.9,1-1.8,1.2-3.5h-7.4v-7H301.3z"/>
	<path class="st5" d="M316,456.8h-9v-34.7h9V456.8z"/>
	<path class="st5" d="M323.3,422.1h9l16.6,21.2v-21.2h9v34.7h-9l-16.6-21.2v21.2h-9V422.1z"/>
	<path class="st5" d="M374.2,429.7v5.8h10.1v7.6h-10.1v6h10.7v7.6h-19.7v-34.7h19.7v7.6H374.2z"/>
</g>
</svg>
